<svg height="512" viewBox="0 0 512 512" width="512" xmlns="http://www.w3.org/2000/svg" id="fi_4404067"><g><g><circle cx="256" cy="256" fill="#006df0" r="240"></circle><g fill="#91cc04"><path d="m216 240-16 40-80 16-24-16-24 16-42.81 38.65a240.31 240.31 0 0 1 71.54-261.67l11.27 15.02 24 32 40 8 32 56z"></path><path d="m496 256a240.894 240.894 0 0 1 -5.45 51.1l-50.55-3.1-48-40-56-24 16-16-16-32-16 8-64-72v-64l56.73-41.26c105.17 25.49 183.27 120.25 183.27 233.26z"></path><path d="m280 320-24 32 8 32 40 16 16 16 24-16 16-24-24-16v-48z"></path><path d="m216 416v32l-4.79 43.83a239.633 239.633 0 0 1 -131.6-73.08l56.39-50.75 32 16 16 24z"></path></g></g><g><path d="m431.36 80.64a248 248 0 1 0 -350.72 350.72 248 248 0 1 0 350.72-350.72zm-407.36 175.36a230.48 230.48 0 0 1 67.95-164.05c2.48-2.48 5.01-4.88 7.58-7.24l30.07 40.09a7.982 7.982 0 0 0 4.83 3.04l36.43 7.29 29.44 51.51 7.48 52.37-13.6 34-72.5 14.5-21.24-14.17a8.013 8.013 0 0 0 -8.88 0l-24 16a9.11 9.11 0 0 0 -.92.72l-33.61 30.35a233.009 233.009 0 0 1 -9.03-64.41zm184 191.56-3.79 34.67a230.526 230.526 0 0 1 -112.26-62.18c-.29-.29-.57-.59-.85-.88l46.2-41.58 25.22 12.62 14.82 22.23a8.037 8.037 0 0 0 4.72 3.32l25.94 6.49zm212.05-27.51a230.48 230.48 0 0 1 -164.05 67.95 235.121 235.121 0 0 1 -36.02-2.78l3.97-36.35a8.457 8.457 0 0 0 .05-.87v-32a8 8 0 0 0 -6.06-7.76l-29-7.25-14.28-21.43a8.152 8.152 0 0 0 -3.08-2.72l-32-16a8 8 0 0 0 -8.93 1.21l-50.43 45.39a230.315 230.315 0 0 1 -41.72-70.41l38.43-34.7 19.07-12.72 19.56 13.05a8.023 8.023 0 0 0 6.01 1.18l80-16a8.009 8.009 0 0 0 5.86-4.87l16-40a7.969 7.969 0 0 0 .49-4.1l-8-56a7.983 7.983 0 0 0 -.97-2.84l-32-56a7.984 7.984 0 0 0 -5.38-3.87l-37-7.41-28.85-38.45a230.277 230.277 0 0 1 144.28-50.3 235.417 235.417 0 0 1 37.3 2.98l-42.01 30.55a8 8 0 0 0 -3.29 6.47v64a7.986 7.986 0 0 0 2.02 5.31l64 72a8.007 8.007 0 0 0 9.56 1.85l8.84-4.43 9.85 19.69-11.93 11.92a8 8 0 0 0 2.51 13.01l54.93 23.54 47.1 39.26a7.964 7.964 0 0 0 4.63 1.83l41.08 2.52a230.621 230.621 0 0 1 -60.54 105.55zm23.06-123.87-45.99-38.33a7.936 7.936 0 0 0 -1.97-1.2l-45.14-19.35 7.65-7.64a8.018 8.018 0 0 0 1.5-9.24l-16-32a8.014 8.014 0 0 0 -10.74-3.58l-10.51 5.26-57.91-65.14v-56.89l50.43-36.68a232.24 232.24 0 0 1 173.57 224.61 234.426 234.426 0 0 1 -3.91 42.69z"></path><path d="m364.437 369.344-20.437-13.625v-43.719a8 8 0 0 0 -9.131-7.919l-56 8a7.992 7.992 0 0 0 -5.269 3.119l-24 32a8 8 0 0 0 -1.361 6.74l8 32a8 8 0 0 0 4.79 5.488l38.475 15.39 14.839 14.839a8 8 0 0 0 10.094 1l24-16a8.01 8.01 0 0 0 2.219-2.218l16-24a8 8 0 0 0 -2.219-11.095zm-26.206 24.887-17.211 11.475-11.363-11.363a8.01 8.01 0 0 0 -2.686-1.771l-36.2-14.481-6.084-24.337 19.727-26.3 43.586-6.23v38.776a8 8 0 0 0 3.562 6.656l17.344 11.563z"></path></g></g></svg>